<svg width="173" height="347" viewBox="0 0 173 347" fill="none" xmlns="http://www.w3.org/2000/svg">
<path d="M172.443 82.2684H170.543V30.1601C170.543 26.1994 169.764 22.2775 168.249 18.6183C166.735 14.9591 164.516 11.6343 161.718 8.83368C158.921 6.03306 155.599 3.81148 151.944 2.2958C148.289 0.780111 144.371 0 140.414 0H30.1284C22.1378 0 14.4746 3.17757 8.82439 8.83368C3.17423 14.4898 0 22.1611 0 30.1601V316.035C0 319.996 0.779283 323.918 2.29338 327.577C3.80747 331.236 6.02671 334.561 8.82439 337.362C11.6221 340.162 14.9434 342.384 18.5987 343.9C22.2541 345.415 26.1718 346.195 30.1284 346.195H140.414C148.405 346.195 156.068 343.018 161.718 337.361C167.368 331.705 170.542 324.034 170.542 316.035V119.36H172.442L172.443 82.2684Z" fill="#E6E6E6"/>
<path d="M141.63 7.84369H127.235C127.897 9.46857 128.15 11.2315 127.971 12.9772C127.792 14.7229 127.187 16.3977 126.209 17.8542C125.231 19.3106 123.911 20.5039 122.364 21.329C120.816 22.1541 119.09 22.5856 117.337 22.5856H54.1557C52.4028 22.5855 50.6768 22.1538 49.1298 21.3287C47.5828 20.5035 46.2622 19.3102 45.2844 17.8538C44.3066 16.3974 43.7016 14.7226 43.5228 12.977C43.3439 11.2314 43.5966 9.4685 44.2586 7.84369H30.8129C24.8457 7.84369 19.1228 10.2167 14.9033 14.4406C10.6838 18.6645 8.31335 24.3934 8.31335 30.3669V315.827C8.31335 321.801 10.6838 327.529 14.9033 331.753C19.1228 335.977 24.8457 338.35 30.8129 338.35H141.63C147.597 338.35 153.32 335.977 157.54 331.753C161.759 327.529 164.13 321.801 164.13 315.827V30.3665C164.13 24.393 161.759 18.6643 157.54 14.4404C153.32 10.2166 147.597 7.84369 141.63 7.84369Z" fill="white"/>
<path d="M72.1004 121.557C72.1 119.561 72.6247 117.601 73.6217 115.873C74.6186 114.145 76.0526 112.711 77.7794 111.714C76.0535 110.716 74.0956 110.191 72.1025 110.191C70.1095 110.19 68.1515 110.715 66.4253 111.713C64.6992 112.71 63.2658 114.145 62.2692 115.873C61.2726 117.601 60.7479 119.561 60.7479 121.556C60.7479 123.551 61.2726 125.511 62.2692 127.239C63.2658 128.967 64.6992 130.401 66.4253 131.399C68.1515 132.396 70.1095 132.921 72.1025 132.921C74.0956 132.921 76.0535 132.395 77.7794 131.398C76.0527 130.401 74.6188 128.967 73.6218 127.239C72.6249 125.512 72.1001 123.552 72.1004 121.557Z" fill="#CCCCCC"/>
<path d="M86.3731 121.557C86.3727 119.561 86.8974 117.601 87.8943 115.873C88.8913 114.145 90.3253 112.711 92.0521 111.714C90.3262 110.716 88.3683 110.191 86.3752 110.191C84.3822 110.19 82.4242 110.715 80.698 111.713C78.9719 112.71 77.5385 114.145 76.5419 115.873C75.5453 117.601 75.0206 119.561 75.0206 121.556C75.0206 123.551 75.5453 125.511 76.5419 127.239C77.5385 128.967 78.9719 130.401 80.698 131.399C82.4242 132.396 84.3822 132.921 86.3752 132.921C88.3683 132.921 90.3262 132.395 92.0521 131.398C90.3254 130.401 88.8915 128.967 87.8945 127.239C86.8976 125.512 86.3728 123.552 86.3731 121.557Z" fill="#CCCCCC"/>
<path d="M100.322 132.921C106.592 132.921 111.675 127.833 111.675 121.556C111.675 115.279 106.592 110.191 100.322 110.191C94.0515 110.191 88.9684 115.279 88.9684 121.556C88.9684 127.833 94.0515 132.921 100.322 132.921Z" fill="#004FFF"/>
<path d="M119.296 157.054H53.1263C52.4963 157.054 51.8924 156.803 51.4469 156.357C51.0015 155.911 50.7509 155.306 50.7502 154.676V88.4363C50.7509 87.8057 51.0015 87.2011 51.4469 86.7552C51.8924 86.3093 52.4963 86.0585 53.1263 86.0577H119.296C119.926 86.0585 120.53 86.3093 120.975 86.7552C121.421 87.2011 121.671 87.8057 121.672 88.4363V154.676C121.671 155.306 121.421 155.911 120.975 156.357C120.53 156.803 119.926 157.054 119.296 157.054ZM53.1263 87.0097C52.7483 87.0101 52.3859 87.1606 52.1186 87.4281C51.8514 87.6957 51.7011 88.0584 51.7007 88.4368V154.676C51.7011 155.055 51.8514 155.417 52.1186 155.685C52.3859 155.952 52.7483 156.103 53.1263 156.103H119.296C119.674 156.103 120.036 155.952 120.304 155.685C120.571 155.417 120.721 155.055 120.722 154.676V88.4368C120.721 88.0584 120.571 87.6957 120.304 87.4281C120.036 87.1606 119.674 87.0101 119.296 87.0097H53.1263Z" fill="#CCCCCC"/>
<path d="M134.071 207.83H32.5862V208.781H134.071V207.83Z" fill="#CCCCCC"/>
<path d="M35.7912 201.889C37.5612 201.889 38.9961 200.453 38.9961 198.681C38.9961 196.909 37.5612 195.473 35.7912 195.473C34.0211 195.473 32.5862 196.909 32.5862 198.681C32.5862 200.453 34.0211 201.889 35.7912 201.889Z" fill="#004FFF"/>
<path d="M134.071 239.911H32.5862V240.863H134.071V239.911Z" fill="#CCCCCC"/>
<path d="M35.7912 233.971C37.5612 233.971 38.9961 232.534 38.9961 230.763C38.9961 228.991 37.5612 227.554 35.7912 227.554C34.0211 227.554 32.5862 228.991 32.5862 230.763C32.5862 232.534 34.0211 233.971 35.7912 233.971Z" fill="#004FFF"/>
<path d="M132.213 276.444H100.142C99.5876 276.443 99.0564 276.222 98.6647 275.83C98.273 275.438 98.0526 274.906 98.052 274.352V263.099C98.0526 262.545 98.273 262.013 98.6647 261.621C99.0564 261.229 99.5876 261.008 100.142 261.007H132.213C132.767 261.008 133.299 261.229 133.69 261.621C134.082 262.013 134.302 262.545 134.303 263.099V274.352C134.302 274.906 134.082 275.438 133.69 275.83C133.299 276.222 132.767 276.443 132.213 276.444V276.444Z" fill="#004FFF"/>
<path d="M46.2456 201.889C48.0156 201.889 49.4505 200.453 49.4505 198.681C49.4505 196.909 48.0156 195.473 46.2456 195.473C44.4756 195.473 43.0406 196.909 43.0406 198.681C43.0406 200.453 44.4756 201.889 46.2456 201.889Z" fill="#004FFF"/>
<path d="M56.6998 201.889C58.4699 201.889 59.9048 200.453 59.9048 198.681C59.9048 196.909 58.4699 195.473 56.6998 195.473C54.9298 195.473 53.4949 196.909 53.4949 198.681C53.4949 200.453 54.9298 201.889 56.6998 201.889Z" fill="#004FFF"/>
<path d="M46.2456 233.971C48.0156 233.971 49.4505 232.534 49.4505 230.763C49.4505 228.991 48.0156 227.554 46.2456 227.554C44.4756 227.554 43.0406 228.991 43.0406 230.763C43.0406 232.534 44.4756 233.971 46.2456 233.971Z" fill="#004FFF"/>
<path d="M56.6998 233.971C58.4699 233.971 59.9048 232.534 59.9048 230.763C59.9048 228.991 58.4699 227.554 56.6998 227.554C54.9298 227.554 53.4949 228.991 53.4949 230.763C53.4949 232.534 54.9298 233.971 56.6998 233.971Z" fill="#004FFF"/>
</svg>
